<?xml version="1.0" encoding="utf-8"?>
<!-- Generator: Adobe Illustrator 24.1.3, SVG Export Plug-In . SVG Version: 6.00 Build 0)  -->
<svg version="1.1" id="Layer_1" xmlns="http://www.w3.org/2000/svg" xmlns:xlink="http://www.w3.org/1999/xlink" x="0px" y="0px"
	 viewBox="0 0 177.48 26" style="enable-background:new 0 0 177.48 26;" xml:space="preserve">
<style type="text/css">
	.st0{fill:#FFFFFF;}
	.st1{fill:#9D38FF;}
</style>
<g>
	<path class="st0" d="M4.74,25.94c-2.82,0-4.42-1.54-4.58-3.68c-0.1-1.28-0.1-3.17-0.1-3.39h2.27c0,0.32,0,1.76,0.1,2.91
		c0.13,1.47,1.02,2.05,2.4,2.05c1.57,0,2.4-0.9,2.4-3.11c0-3.87-1.7-5.83-3.46-7.72C1.92,11.01,0,9.06,0,4.93C0,1.86,1.6,0,4.77,0
		c3.04,0,4.42,2.05,4.58,4.45c0.06,0.93,0.1,2.66,0.1,2.75H7.11c0-0.06,0-1.6-0.06-2.53C6.95,3.2,6.4,2.21,4.77,2.21
		c-1.7,0-2.37,0.9-2.37,2.85c0,2.79,1.41,4.42,2.98,6.12c1.99,2.18,4.23,4.45,4.23,9.32C9.61,24.17,7.84,25.94,4.74,25.94z"/>
	<path class="st0" d="M23.57,16.39v9.32h-2.4v-9.25l-4.35-16.3h2.47c0,0,3.14,12.1,3.17,13.16c0-1.09,3.33-13.16,3.33-13.16h2.43
		L23.57,16.39z"/>
	<path class="st0" d="M38.87,2.4v9.29h5.48v2.24h-5.48v11.78H36.5V0.16h8.2V2.4H38.87z"/>
	<path class="st0" d="M61.73,11.46c-0.32,0.8-0.96,1.63-1.57,1.79l2.88,12.46h-2.53L57.92,13.9l-2.37,0.03v11.78h-2.31V0.16h5
		c2.08,0,3.11,1.02,3.62,2.72c0.26,0.8,0.38,2.27,0.38,4.26C62.25,9.19,62.09,10.53,61.73,11.46z M59.65,4.07
		c-0.16-0.99-0.74-1.7-1.7-1.7h-2.37c0,0,0,8.87,0,9.38c0.03,0,2.34,0,2.56-0.03c0.74-0.06,1.15-0.48,1.34-1.02
		c0.22-0.58,0.32-2.27,0.32-3.23C59.81,6.24,59.72,4.42,59.65,4.07z"/>
	<path class="st1" d="M71.85,25.71v-2.88h2.88v2.88H71.85z"/>
	<path class="st0" d="M88.47,25.94c-2.82,0-4.42-1.54-4.58-3.68c-0.1-1.28-0.1-3.17-0.1-3.39h2.27c0,0.32,0,1.76,0.1,2.91
		c0.13,1.47,1.02,2.05,2.4,2.05c1.57,0,2.4-0.9,2.4-3.11c0-3.87-1.7-5.83-3.46-7.72c-1.86-1.98-3.78-3.94-3.78-8.07
		c0-3.07,1.6-4.93,4.77-4.93c3.04,0,4.42,2.05,4.58,4.45c0.06,0.93,0.1,2.66,0.1,2.75h-2.34c0-0.06,0-1.6-0.06-2.53
		c-0.1-1.47-0.64-2.47-2.27-2.47c-1.7,0-2.37,0.9-2.37,2.85c0,2.79,1.41,4.42,2.98,6.12c1.99,2.18,4.23,4.45,4.23,9.32
		C93.34,24.17,91.57,25.94,88.47,25.94z"/>
	<path class="st0" d="M106.69,2.4v23.31h-2.4V2.4h-3.55V0.16h9.54V2.4H106.69z"/>
	<path class="st0" d="M123.21,25.94c-2.69,0-4.77-1.41-4.77-4.84c0-0.26,0-20.94,0-20.94h2.34c0,0,0,19.92,0,20.72
		c0,1.99,0.86,2.82,2.37,2.82c1.54,0,2.31-0.86,2.31-2.82c0-0.77,0-20.72,0-20.72h2.37c0,0,0,20.75,0,21.01
		C127.82,24.14,126.28,25.94,123.21,25.94z"/>
	<path class="st0" d="M142.1,25.71h-4.87V0.16h4.48c2.31,0,3.87,1.02,4.35,2.53c0.54,1.7,0.67,4.35,0.67,9.7
		c0,5.35-0.1,9.22-0.64,10.73C145.56,24.59,144.47,25.71,142.1,25.71z M144.37,12.39c0-3.65-0.13-7.04-0.35-8.01
		c-0.26-1.31-1.18-1.95-2.34-1.95h-2.08v21.13h2.37c0.96,0,1.57-0.45,1.99-1.5C144.31,21.16,144.37,15.69,144.37,12.39z"/>
	<path class="st0" d="M155.71,25.71V0.16h2.43v25.55H155.71z"/>
	<path class="st0" d="M175.62,1.18c1.79,1.73,1.86,5.64,1.86,11.85c0,6.24-0.1,10.05-1.89,11.85c-0.74,0.74-1.76,1.12-3.23,1.12
		c-1.47,0-2.53-0.38-3.27-1.12c-1.76-1.76-1.86-5.6-1.86-11.85c0-6.28,0.13-10.15,1.92-11.88c0.74-0.7,1.76-1.09,3.2-1.09
		C173.83,0.06,174.89,0.42,175.62,1.18z M175.05,13.03c0-8.87-0.29-10.69-2.69-10.69c-2.4,0-2.69,1.83-2.69,10.69
		c0,8.87,0.26,10.73,2.69,10.73C174.73,23.76,175.05,21.9,175.05,13.03z"/>
</g>
</svg>
